HIERARCHY
ROOT Hips
{
  OFFSET 5.72205e-005 65.662 3.42586
  CHANNELS 6 Xposition Yposition Zposition Zrotation Xrotation Yrotation
  JOINT Chest
  {
    OFFSET 0 8.7983 -4.7612
    CHANNELS 6 Xposition Yposition Zposition Zrotation Xrotation Yrotation
    JOINT Chest2
    {
      OFFSET 0 8.0291 0.4195
      CHANNELS 6 Xposition Yposition Zposition Zrotation Xrotation Yrotation
      JOINT Chest3
      {
        OFFSET 0 9.9351 -2.2114
        CHANNELS 6 Xposition Yposition Zposition Zrotation Xrotation Yrotation
        JOINT Neck
        {
          OFFSET 0 22.3885 -0.4656
          CHANNELS 6 Xposition Yposition Zposition Zrotation Xrotation Yrotation
          JOINT Head
          {
            OFFSET -0.0001 12.643 3.4389
            CHANNELS 6 Xposition Yposition Zposition Zrotation Xrotation Yrotation
            End Site
            {
              OFFSET 0.0001 17.6655 0.5274
            }
          }
        }
        JOINT LeftCollar
        {
          OFFSET 2.2603 21.606 7.4023
          CHANNELS 6 Xposition Yposition Zposition Zrotation Xrotation Yrotation
          JOINT LeftShoulder
          {
            OFFSET 13.5163 -1.1332 -5.0146
            CHANNELS 6 Xposition Yposition Zposition Zrotation Xrotation Yrotation
            JOINT LeftElbow
            {
              OFFSET -0.0995 -28.05 -0.2431
              CHANNELS 6 Xposition Yposition Zposition Zrotation Xrotation Yrotation
              JOINT LeftWrist
              {
                OFFSET 0.0679 -23.3996 -0.1402
                CHANNELS 6 Xposition Yposition Zposition Zrotation Xrotation Yrotation
                JOINT LeftFinger1
                {
                  OFFSET 0.7932 -9.069 2.5189
                  CHANNELS 6 Xposition Yposition Zposition Zrotation Xrotation Yrotation
                  JOINT LeftFinger11
                  {
                    OFFSET -0.8272 -3.3923 0.5977
                    CHANNELS 6 Xposition Yposition Zposition Zrotation Xrotation Yrotation
                    JOINT LeftFinger12
                    {
                      OFFSET -0.5649 -2.3158 0.4082
                      CHANNELS 6 Xposition Yposition Zposition Zrotation Xrotation Yrotation
                      End Site
                      {
                        OFFSET -0.4919 -1.6479 0.2673
                      }
                    }
                  }
                }
                JOINT LeftFinger2
                {
                  OFFSET 0.9159 -9.2044 0.2193
                  CHANNELS 6 Xposition Yposition Zposition Zrotation Xrotation Yrotation
                  JOINT LeftFinger21
                  {
                    OFFSET 0.0117 -4.1944 -0.0248
                    CHANNELS 6 Xposition Yposition Zposition Zrotation Xrotation Yrotation
                    JOINT LeftFinger22
                    {
                      OFFSET 0.0071 -2.3249 -0.0142
                      CHANNELS 6 Xposition Yposition Zposition Zrotation Xrotation Yrotation
                      End Site
                      {
                        OFFSET -0.1475 -2.0882 0.0028
                      }
                    }
                  }
                }
                JOINT LeftFinger3
                {
                  OFFSET 0.6113 -8.7231 -2.0637
                  CHANNELS 6 Xposition Yposition Zposition Zrotation Xrotation Yrotation
                  JOINT LeftFinger31
                  {
                    OFFSET -0.1927 -3.8059 -0.2383
                    CHANNELS 6 Xposition Yposition Zposition Zrotation Xrotation Yrotation
                    JOINT LeftFinger32
                    {
                      OFFSET -0.1091 -2.1688 -0.1362
                      CHANNELS 6 Xposition Yposition Zposition Zrotation Xrotation Yrotation
                      End Site
                      {
                        OFFSET -0.2358 -1.9176 -0.0906
                      }
                    }
                  }
                }
                JOINT LeftFinger4
                {
                  OFFSET -0.6151 -8.0947 -3.5641
                  CHANNELS 6 Xposition Yposition Zposition Zrotation Xrotation Yrotation
                  JOINT LeftFinger41
                  {
                    OFFSET -0.4882 -2.341 -0.6462
                    CHANNELS 6 Xposition Yposition Zposition Zrotation Xrotation Yrotation
                    JOINT LeftFinger42
                    {
                      OFFSET -0.3575 -1.7167 -0.4742
                      CHANNELS 6 Xposition Yposition Zposition Zrotation Xrotation Yrotation
                      End Site
                      {
                        OFFSET -0.4187 -1.5237 -0.3496
                      }
                    }
                  }
                }
                JOINT LeftFinger0
                {
                  OFFSET -1.42 -1.8761 1.4223
                  CHANNELS 6 Xposition Yposition Zposition Zrotation Xrotation Yrotation
                  JOINT LeftFinger01
                  {
                    OFFSET -1.1471 -3.4929 2.6334
                    CHANNELS 6 Xposition Yposition Zposition Zrotation Xrotation Yrotation
                    JOINT LeftFinger02
                    {
                      OFFSET -0.823 -2.3 1.6571
                      CHANNELS 6 Xposition Yposition Zposition Zrotation Xrotation Yrotation
                      End Site
                      {
                        OFFSET -0.5822 -1.6914 1.1582
                      }
                    }
                  }
                }
              }
            }
          }
        }
        JOINT RightCollar
        {
          OFFSET -2.2603 21.606 7.4023
          CHANNELS 6 Xposition Yposition Zposition Zrotation Xrotation Yrotation
          JOINT RightShoulder
          {
            OFFSET -13.5187 -1.1334 -5.0155
            CHANNELS 6 Xposition Yposition Zposition Zrotation Xrotation Yrotation
            JOINT RightElbow
            {
              OFFSET 0.0994 -28.0499 -0.2431
              CHANNELS 6 Xposition Yposition Zposition Zrotation Xrotation Yrotation
              JOINT RightWrist
              {
                OFFSET -0.0679 -23.3996 -0.1402
                CHANNELS 6 Xposition Yposition Zposition Zrotation Xrotation Yrotation
                JOINT RightFinger1
                {
                  OFFSET -0.7932 -9.0691 2.5189
                  CHANNELS 6 Xposition Yposition Zposition Zrotation Xrotation Yrotation
                  JOINT RightFinger11
                  {
                    OFFSET 0.8272 -3.3923 0.5977
                    CHANNELS 6 Xposition Yposition Zposition Zrotation Xrotation Yrotation
                    JOINT RightFinger12
                    {
                      OFFSET 0.565 -2.3158 0.4082
                      CHANNELS 6 Xposition Yposition Zposition Zrotation Xrotation Yrotation
                      End Site
                      {
                        OFFSET 0.4919 -1.6479 0.2673
                      }
                    }
                  }
                }
                JOINT RightFinger2
                {
                  OFFSET -0.916 -9.2044 0.2193
                  CHANNELS 6 Xposition Yposition Zposition Zrotation Xrotation Yrotation
                  JOINT RightFinger21
                  {
                    OFFSET -0.0117 -4.1944 -0.0248
                    CHANNELS 6 Xposition Yposition Zposition Zrotation Xrotation Yrotation
                    JOINT RightFinger22
                    {
                      OFFSET -0.0071 -2.3249 -0.0142
                      CHANNELS 6 Xposition Yposition Zposition Zrotation Xrotation Yrotation
                      End Site
                      {
                        OFFSET 0.1475 -2.0882 0.0028
                      }
                    }
                  }
                }
                JOINT RightFinger3
                {
                  OFFSET -0.6113 -8.7231 -2.0637
                  CHANNELS 6 Xposition Yposition Zposition Zrotation Xrotation Yrotation
                  JOINT RightFinger31
                  {
                    OFFSET 0.1927 -3.8059 -0.2383
                    CHANNELS 6 Xposition Yposition Zposition Zrotation Xrotation Yrotation
                    JOINT RightFinger32
                    {
                      OFFSET 0.1091 -2.1688 -0.1362
                      CHANNELS 6 Xposition Yposition Zposition Zrotation Xrotation Yrotation
                      End Site
                      {
                        OFFSET 0.2358 -1.9176 -0.0906
                      }
                    }
                  }
                }
                JOINT RightFinger4
                {
                  OFFSET 0.6151 -8.0947 -3.564
                  CHANNELS 6 Xposition Yposition Zposition Zrotation Xrotation Yrotation
                  JOINT RightFinger41
                  {
                    OFFSET 0.4882 -2.341 -0.6462
                    CHANNELS 6 Xposition Yposition Zposition Zrotation Xrotation Yrotation
                    JOINT RightFinger42
                    {
                      OFFSET 0.3574 -1.7166 -0.4742
                      CHANNELS 6 Xposition Yposition Zposition Zrotation Xrotation Yrotation
                      End Site
                      {
                        OFFSET 0.4187 -1.5237 -0.3496
                      }
                    }
                  }
                }
                JOINT RightFinger0
                {
                  OFFSET 1.4199 -1.8761 1.4221
                  CHANNELS 6 Xposition Yposition Zposition Zrotation Xrotation Yrotation
                  JOINT RightFinger01
                  {
                    OFFSET 1.1472 -3.4929 2.6336
                    CHANNELS 6 Xposition Yposition Zposition Zrotation Xrotation Yrotation
                    JOINT RightFinger02
                    {
                      OFFSET 0.8229 -2.3 1.6571
                      CHANNELS 6 Xposition Yposition Zposition Zrotation Xrotation Yrotation
                      End Site
                      {
                        OFFSET 0.5822 -1.6914 1.1582
                      }
                    }
                  }
                }
              }
            }
          }
        }
      }
    }
  }
  JOINT RightHip
  {
    OFFSET -9.412 3.9771 -0.7758
    CHANNELS 6 Xposition Yposition Zposition Zrotation Xrotation Yrotation
    JOINT RightKnee
    {
      OFFSET -0.7531 -40.938 0
      CHANNELS 6 Xposition Yposition Zposition Zrotation Xrotation Yrotation
      JOINT RightAnkle
      {
        OFFSET 0 -40.1986 0
        CHANNELS 6 Xposition Yposition Zposition Zrotation Xrotation Yrotation
        JOINT RightToe
        {
          OFFSET 0 -4.4182 9.239
          CHANNELS 6 Xposition Yposition Zposition Zrotation Xrotation Yrotation
          End Site
          {
            OFFSET 0 0 6.1981
          }
        }
      }
    }
  }
  JOINT LeftHip
  {
    OFFSET 9.4119 3.9773 -0.7758
    CHANNELS 6 Xposition Yposition Zposition Zrotation Xrotation Yrotation
    JOINT LeftKnee
    {
      OFFSET 0.7532 -40.9383 0
      CHANNELS 6 Xposition Yposition Zposition Zrotation Xrotation Yrotation
      JOINT LeftAnkle
      {
        OFFSET 0 -40.1986 0
        CHANNELS 6 Xposition Yposition Zposition Zrotation Xrotation Yrotation
        JOINT LeftToe
        {
          OFFSET 0 -4.4182 9.239
          CHANNELS 6 Xposition Yposition Zposition Zrotation Xrotation Yrotation
          End Site
          {
            OFFSET 0 0 6.1981
          }
        }
      }
    }
  }
}
MOTION
Frames:	4
Frame Time:	0.0333333
5.72205e-005 65.662 3.42586 0 0 -0 0 8.7983 -4.7612 0 0 -0 0 8.0291 0.4195 0 0 -0 0 9.9351 -2.2114 0 0 -0 0 22.3885 -0.4656 0 0 -0 -0.0001 12.643 3.4389 0 0 -0 2.2603 21.606 7.4023 0 0 -12.5014 13.5163 -1.1332 -5.0146 88.1196 14.2451 10.6914 -0.0995 -28.05 -0.2431 -0.00160068 -0.00239207 0.000740045 0.0679 -23.3996 -0.1402 -8.4365e-005 7.00714e-005 -9.52055e-007 0.7932 -9.069 2.5189 9.93923e-017 -1.98785e-016 -1.59028e-015 -0.8272 -3.3923 0.5977 9.93923e-017 -5.96354e-016 -1.59028e-015 -0.5649 -2.3158 0.4082 -9.93923e-017 -5.96354e-016 -1.59028e-015 0.9159 -9.2044 0.2193 9.93923e-017 -1.98785e-016 -1.59028e-015 0.0117 -4.1944 -0.0248 -0.0128176 0.00232552 8.52707e-005 0.0071 -2.3249 -0.0142 9.93923e-017 5.96354e-016 -0 0.6113 -8.7231 -2.0637 9.93923e-017 -1.98785e-016 -1.59028e-015 -0.1927 -3.8059 -0.2383 -0.0160551 0.00299681 0.000857156 -0.1091 -2.1688 -0.1362 -2.48481e-016 0 3.18055e-015 -0.6151 -8.0947 -3.5641 9.93923e-017 -1.98785e-016 -1.59028e-015 -0.4882 -2.341 -0.6462 -0.0125865 0.0031206 0.00282719 -0.3575 -1.7167 -0.4742 0 1.98785e-016 -0 -1.42 -1.8761 1.4223 9.93923e-017 -1.98785e-016 -1.59028e-015 -1.1471 -3.4929 2.6334 9.93923e-017 -5.96354e-016 -1.59028e-015 -0.823 -2.3 1.6571 -9.93923e-017 -5.96354e-016 -1.59028e-015 -2.2603 21.606 7.4023 -0.865644 0.16582 7.03859 -13.5187 -1.1334 -5.0155 -88.0329 10.2057 -10.5567 0.0994 -28.0499 -0.2431 0.0015593 -0.00248883 -0.000788628 -0.0679 -23.3996 -0.1402 7.87605e-005 4.10553e-005 1.24965e-005 -0.7932 -9.0691 2.5189 -3.97569e-016 -7.95139e-016 3.18055e-015 0.8272 -3.3923 0.5977 -1.98785e-016 -3.97569e-016 3.18055e-015 0.565 -2.3158 0.4082 -1.98785e-016 0 3.18055e-015 -0.916 -9.2044 0.2193 -3.97569e-016 -7.95139e-016 3.18055e-015 -0.0117 -4.1944 -0.0248 0.0129473 0.00231697 -8.70038e-005 -0.0071 -2.3249 -0.0142 9.93923e-017 -7.95139e-016 1.59028e-015 -0.6113 -8.7231 -2.0637 -3.97569e-016 -7.95139e-016 3.18055e-015 0.1927 -3.8059 -0.2383 0.0163314 0.00303369 -0.000872333 0.1091 -2.1688 -0.1362 3.97569e-016 7.95139e-016 -3.18055e-015 0.6151 -8.0947 -3.564 -3.97569e-016 -7.95139e-016 3.18055e-015 0.4882 -2.341 -0.6462 0.0145763 0.00367772 -0.00326275 0.3574 -1.7166 -0.4742 9.93923e-017 -3.97569e-016 -0 1.4199 -1.8761 1.4221 -3.97569e-016 -7.95139e-016 3.18055e-015 1.1472 -3.4929 2.6336 -1.98785e-016 -3.97569e-016 3.18055e-015 0.8229 -2.3 1.6571 -1.98785e-016 0 3.18055e-015 -9.412 3.9771 -0.7758 3.42482 1.32465 -0.0626183 -0.7531 -40.938 0 0.000117508 0.717283 0.000978199 0 -40.1986 0 -3.4257 -2.04197 -0.0604716 8.88178e-016 -4.4182 9.239 6.47761e-025 0 -0 9.4119 3.9773 -0.7758 -3.42483 1.34017 0.0627307 0.7532 -40.9383 -2.22045e-016 -0.000193936 0.682302 -0.0013703 -8.88179e-016 -40.1986 0 3.42574 -2.02253 0.0595886 -8.88178e-016 -4.4182 9.239 -8.45714e-024 0 -7.40531e-025 
3.96496e-005 2.77084 -13.6723 0 3.99975 -0 0 8.7983 -4.7612 0 15.7993 -0 0 8.0291 0.4195 0 31.5986 -0 0 9.9351 -2.2114 0 31.5985 -0 0 22.3885 -0.4656 -0 -27.0016 -0 -0.0001 12.643 3.4389 -0 -12.0013 -0 2.2603 21.606 7.4023 1.05234 -9.94808 -6.4129 13.5163 -1.1332 -5.0146 126.231 -76.666 120.514 -0.0995 -28.05 -0.2431 -2.6381 -11.4391 19.3196 0.0679 -23.3996 -0.1402 0.579558 0.314491 -14.9857 0.7932 -9.069 2.5189 1.32417e-031 1.90833e-014 -3.97569e-016 -0.8272 -3.3923 0.5977 3.31043e-031 1.90833e-014 -9.93923e-016 -0.5649 -2.3158 0.4082 3.97569e-016 1.59028e-014 -9.93923e-016 0.9159 -9.2044 0.2193 1.32417e-031 1.90833e-014 -3.97569e-016 0.0117 -4.1944 -0.0248 -0.0128147 0.00230539 8.17408e-005 0.0071 -2.3249 -0.0142 1.98785e-016 6.36111e-015 -9.93923e-016 0.6113 -8.7231 -2.0637 1.32417e-031 1.90833e-014 -3.97569e-016 -0.1927 -3.8059 -0.2383 -0.016044 0.00298241 0.000857485 -0.1091 -2.1688 -0.1362 -9.93923e-016 6.36111e-015 -0 -0.6151 -8.0947 -3.5641 1.32417e-031 1.90833e-014 -3.97569e-016 -0.4882 -2.341 -0.6462 -0.0125906 0.00310223 0.00282343 -0.3575 -1.7167 -0.4742 -1.98785e-016 -9.54166e-015 1.19271e-015 -1.42 -1.8761 1.4223 1.32417e-031 1.90833e-014 -3.97569e-016 -1.1471 -3.4929 2.6334 3.31043e-031 1.90833e-014 -9.93923e-016 -0.823 -2.3 1.6571 3.97569e-016 1.59028e-014 -9.93923e-016 -2.2603 21.606 7.4023 -1.91152 -9.69002 0.799156 -13.5187 -1.1334 -5.0155 -136.243 -80.5266 -131.782 0.0994 -28.0499 -0.2431 1.89897 -16.7628 20.394 -0.0679 -23.3996 -0.1402 1.54374 -0.651507 -28.9448 -0.7932 -9.06911 2.5189 -5.39229e-007 -1.16242e-008 -1.6373e-006 0.8272 -3.3923 0.5977 -6.44422e-007 -2.62873e-006 -1.49071e-006 0.565 -2.3158 0.4082 3.97569e-016 0 -4.96962e-016 -0.916 -9.20441 0.2193 -5.39229e-007 -1.16242e-008 -1.6373e-006 -0.0117 -4.1944 -0.0248 0.0129891 0.00231603 -8.98435e-005 -0.0071 -2.3249 -0.0142 -6.20893e-007 -1.43626e-008 -1.56872e-006 -0.6113 -8.7231 -2.0637 -5.39229e-007 -1.16242e-008 -1.6373e-006 0.1927 -3.8059 -0.2383 0.0163282 0.00302484 -0.000872147 0.1091 -2.1688 -0.1362 -1.16003e-006 1.26287e-006 -3.20606e-006 0.6151 -8.0947 -3.564 -5.39229e-007 -1.16242e-008 -1.6373e-006 0.4882 -2.341 -0.6462 0.0145564 0.00366779 -0.00325435 0.3574 -1.7166 -0.4742 -1.15999e-006 -2.50192e-008 -3.20607e-006 1.4199 -1.8761 1.4221 -5.39229e-007 -1.16242e-008 -1.6373e-006 1.1472 -3.4929 2.6336 -6.44422e-007 -2.62873e-006 -1.49071e-006 0.8229 -2.3 1.6571 3.97569e-016 0 -4.96962e-016 -9.412 3.9771 -0.7758 -32.3607 -52.942 -7.18447 -0.7531 -40.938 -3.55271e-015 179.768 27.7283 174.154 1.77636e-015 -40.1986 0 2.55258 51.1578 -5.19734 3.55271e-015 -4.4182 9.239 -3.72244e-007 0 -7.68262e-007 9.4119 3.9773 -0.7758 32.3233 -52.9532 7.1534 0.7532 -40.9383 -3.55271e-015 -179.749 27.7192 -174.154 -1.77636e-015 -40.1986 -3.55271e-015 -2.55283 51.1566 5.19761 1.77636e-015 -4.4182 9.239 8.35957e-007 1.56397e-006 8.04951e-007 
3.96496e-005 2.77084 -13.6723 0 3.99974 -0 0 8.7983 -4.7612 0 15.8457 -0 0 8.0291 0.4195 0 31.6916 -0 0 9.9351 -2.2114 0 31.6914 -0 0 22.3885 -0.4656 -0 -27.0016 -0 -0.0001 12.643 3.4389 0.0549264 -12.2983 -0.471262 2.2603 21.606 7.4023 1.05234 -9.94809 -6.4129 13.5163 -1.1332 -5.0146 127.88 -76.4067 122.107 -0.0995 -28.05 -0.2431 -2.64358 -11.5679 19.0353 0.0679 -23.3996 -0.1402 0.579523 0.314465 -14.9856 0.7932 -9.069 2.5189 3.97569e-016 -9.54166e-015 3.97569e-016 -0.8272 -3.3923 0.5977 3.97569e-016 -3.18055e-015 3.97569e-016 -0.5649 -2.3158 0.4082 1.98785e-016 -3.18055e-015 3.97569e-016 0.9159 -9.2044 0.2193 3.97569e-016 -9.54166e-015 3.97569e-016 0.0117 -4.1944 -0.0248 -0.0128196 0.00232805 8.71522e-005 0.0071 -2.3249 -0.0142 4.41391e-032 6.36111e-015 -3.97569e-016 0.6113 -8.7231 -2.0637 3.97569e-016 -9.54166e-015 3.97569e-016 -0.1927 -3.8059 -0.2383 -0.0160418 0.00298739 0.000858831 -0.1091 -2.1688 -0.1362 3.97569e-016 6.36111e-015 -1.98785e-016 -0.6151 -8.0947 -3.5641 3.97569e-016 -9.54166e-015 3.97569e-016 -0.4882 -2.341 -0.6462 -0.0125927 0.00312441 0.00282997 -0.3575 -1.7167 -0.4742 -5.95802e-006 -1.7046e-007 3.77398e-006 -1.42 -1.8761 1.4223 3.97569e-016 -9.54166e-015 3.97569e-016 -1.1471 -3.4929 2.6334 3.97569e-016 -3.18055e-015 3.97569e-016 -0.823 -2.3 1.6571 1.98785e-016 -3.18055e-015 3.97569e-016 -2.2603 21.606 7.4023 -1.91152 -9.69003 0.799154 -13.5187 -1.1334 -5.0155 -138.176 -80.1955 -133.686 0.0994 -28.0499 -0.2431 1.89912 -16.7629 20.394 -0.0679 -23.3996 -0.1402 1.37935 -0.674869 -28.1037 -0.7932 -9.0691 2.5189 3.21726e-006 -8.8337e-006 -1.42764e-006 0.8272 -3.3923 0.5977 -6.55048e-008 8.84431e-006 2.78572e-008 0.565 -2.3158 0.4082 -5.89166e-007 -6.09582e-009 -1.59999e-006 -0.916 -9.2044 0.2193 3.21726e-006 -8.8337e-006 -1.42764e-006 -0.0117 -4.1944 -0.0248 0.0129796 0.002331 -8.69829e-005 -0.0071 -2.3249 -0.0142 2.02182e-006 -1.15047e-009 -4.37809e-006 -0.6113 -8.7231 -2.0637 3.21726e-006 -8.8337e-006 -1.42764e-006 0.1927 -3.8059 -0.2383 0.0163286 0.00304237 -0.000869463 0.1091 -2.1688 -0.1362 -5.89084e-007 -6.29161e-009 -1.60002e-006 0.6151 -8.0947 -3.564 3.21726e-006 -8.8337e-006 -1.42764e-006 0.4882 -2.341 -0.6462 0.0146113 0.00369958 -0.00327066 0.3574 -1.7166 -0.4742 -6.06339e-007 -6.28584e-009 -1.62036e-006 1.4199 -1.8761 1.4221 3.21726e-006 -8.8337e-006 -1.42764e-006 1.1472 -3.4929 2.6336 -6.55048e-008 8.84431e-006 2.78572e-008 0.8229 -2.3 1.6571 -5.89166e-007 -6.09582e-009 -1.59999e-006 -9.412 3.9771 -0.7758 -32.3607 -52.942 -7.18444 -0.7531 -40.938 0 179.768 27.7282 174.154 -3.55271e-015 -40.1986 0 2.55263 51.1578 -5.19737 -1.77636e-015 -4.4182 9.239 -7.44487e-007 -1.7649e-007 -1.53652e-006 9.4119 3.9773 -0.7758 32.3229 -52.9533 7.15299 0.7532 -40.9383 -2.66454e-015 -179.749 27.7191 -174.154 -3.55271e-015 -40.1986 0 -2.55281 51.1566 5.19759 1.77636e-015 -4.4182 9.239 2.51323e-006 1.44194e-006 -1.18741e-006 
3.96701e-005 2.77084 -13.6723 0 3.99976 -0 0 8.7983 -4.7612 0 15.8922 -0 0 8.0291 0.4195 0 31.7845 -0 0 9.9351 -2.2114 0 31.7843 -0 0 22.3885 -0.4656 -0 -27.0016 -0 -0.0001 12.643 3.4389 0.107464 -12.596 -0.943255 2.2603 21.606 7.4023 1.05234 -9.9481 -6.4129 13.5163 -1.1332 -5.0146 129.469 -76.1367 123.639 -0.0995 -28.05 -0.2431 -2.64977 -11.6968 18.7507 0.0679 -23.3996 -0.1402 0.579538 0.314444 -14.9856 0.7932 -9.069 2.5189 -7.95139e-016 6.36111e-015 -5.96354e-016 -0.8272 -3.3923 0.5977 -5.96354e-016 9.54166e-015 -3.97569e-016 -0.5649 -2.3158 0.4082 -1.98785e-016 9.54166e-015 1.98785e-016 0.9159 -9.2044 0.2193 -7.95139e-016 6.36111e-015 -5.96354e-016 0.0117 -4.1944 -0.0248 -0.0128113 0.0023212 8.6009e-005 0.0071 -2.3249 -0.0142 3.97569e-016 0 7.95139e-016 0.6113 -8.7231 -2.0637 -7.95139e-016 6.36111e-015 -5.96354e-016 -0.1927 -3.8059 -0.2383 -0.016072 0.00300497 0.000862858 -0.1091 -2.1688 -0.1362 9.93923e-016 -3.18055e-015 -0 -0.6151 -8.0947 -3.5641 -7.95139e-016 6.36111e-015 -5.96354e-016 -0.4882 -2.341 -0.6462 -0.0126284 0.00312757 0.00284076 -0.3575 -1.7167 -0.4742 3.97569e-016 3.18055e-015 9.93923e-016 -1.42 -1.8761 1.4223 -7.95139e-016 6.36111e-015 -5.96354e-016 -1.1471 -3.4929 2.6334 -5.96354e-016 9.54166e-015 -3.97569e-016 -0.823 -2.3 1.6571 -1.98785e-016 9.54166e-015 1.98785e-016 -2.2603 21.606 7.4023 -1.91152 -9.69004 0.799153 -13.5187 -1.1334 -5.0155 -139.985 -79.8539 -135.465 0.0994 -28.0499 -0.2431 1.89915 -16.7629 20.394 -0.0679 -23.3996 -0.1402 1.21497 -0.70072 -27.2607 -0.7932 -9.0691 2.5189 -4.96962e-017 3.18055e-015 -4.96962e-017 0.8272 -3.3923 0.5977 0 0 -0 0.565 -2.3158 0.4082 4.96962e-017 6.36111e-015 -4.96962e-017 -0.916 -9.2044 0.2193 -4.96962e-017 3.18055e-015 -4.96962e-017 -0.0117 -4.1944 -0.0248 0.0129523 0.00230314 -8.61121e-005 -0.0071 -2.3249 -0.0142 -2.75869e-033 -3.18055e-015 -4.96962e-017 -0.6113 -8.7231 -2.0637 -4.96962e-017 3.18055e-015 -4.96962e-017 0.1927 -3.8059 -0.2383 0.0163213 0.00302881 -0.00087173 0.1091 -2.1688 -0.1362 -9.93923e-017 2.22639e-014 -4.96962e-017 0.6151 -8.0947 -3.564 -4.96962e-017 3.18055e-015 -4.96962e-017 0.4882 -2.341 -0.6462 0.0145495 0.00366727 -0.00325208 0.3574 -1.7166 -0.4742 -4.96962e-017 -1.59028e-014 1.98785e-016 1.4199 -1.8761 1.4221 -4.96962e-017 3.18055e-015 -4.96962e-017 1.1472 -3.4929 2.6336 0 0 -0 0.8229 -2.3 1.6571 4.96962e-017 6.36111e-015 -4.96962e-017 -9.412 3.9771 -0.7758 -32.3613 -52.9418 -7.18494 -0.7531 -40.938 0 179.768 27.7284 174.154 3.55271e-015 -40.1986 0 2.55262 51.1578 -5.19735 1.77636e-015 -4.4182 9.239 -4.74604e-006 3.95005e-006 -1.59765e-006 9.4119 3.9773 -0.7758 32.3225 -52.9534 7.15275 0.7532 -40.9383 -5.32907e-015 -179.748 27.7189 -174.154 0 -40.1986 0 -2.55281 51.1566 5.19761 1.77636e-015 -4.4182 9.239 1.02423e-005 -6.46351e-006 -2.51825e-006 
